<svg version="1.2" xmlns="http://www.w3.org/2000/svg" viewBox="0 0 639 227" width="639" height="227"><style>.a{fill:#ffdb4f}.b{fill:#81735e}</style><path class="a" d="m28 111c-1.3 0-2.4 1.1-2.4 2.4 0 1.3 1.1 2.4 2.4 2.4 1.3 0 2.4-1.1 2.4-2.4 0-1.3-1.1-2.4-2.4-2.4zm11 13.4c-1.3 1.3-1.3 3.4 0 4.7 1.3 1.3 3.4 1.3 4.7 0 1.3-1.3 1.3-3.4 0-4.7-1.2-1.3-3.4-1.3-4.7 0zm47 20.2c2.4-2.4 2.4-6.4 0-8.8-2.4-2.4-6.4-2.4-8.8 0-2.4 2.4-2.4 6.4 0 8.8 2.4 2.4 6.4 2.4 8.8 0zm-21.5 5.2c-2.1 2.1-2.1 5.4 0 7.4 2.1 2.1 5.4 2.1 7.4 0 2.1-2.1 2.1-5.4 0-7.4-2-2-5.4-2-7.4 0zm-12.7-39.5c-1.7 1.7-1.7 4.4 0 6.1 1.7 1.7 4.4 1.7 6.1 0 1.7-1.7 1.7-4.4 0-6.1-1.7-1.6-4.5-1.6-6.1 0zm0-26.7c-1.7 1.7-1.7 4.4 0 6.1 1.7 1.7 4.4 1.7 6.1 0 1.7-1.7 1.7-4.4 0-6.1-1.7-1.7-4.5-1.7-6.1 0zm-12.8 14c-1.3 1.3-1.3 3.4 0 4.7 1.3 1.3 3.4 1.3 4.7 0 1.3-1.3 1.3-3.4 0-4.7-1.2-1.3-3.4-1.3-4.7 0zm12.8 39.5c-1.7 1.7-1.7 4.4 0 6.1 1.7 1.7 4.4 1.7 6.1 0 1.7-1.7 1.7-4.4 0-6.1-1.7-1.7-4.5-1.7-6.1 0zm48.3-32c2.8-2.8 2.8-7.3 0-10.1-2.8-2.8-7.3-2.8-10.1 0-2.8 2.8-2.8 7.3 0 10.1 2.7 2.8 7.3 2.8 10.1 0zm2.5-12.7c3.2 3.2 8.3 3.2 11.5 0 3.2-3.2 3.2-8.3 0-11.5-3.2-3.2-8.3-3.2-11.5 0-3.1 3.1-3.1 8.3 0 11.5zm-38.1 30.7c-2.1 2.1-2.1 5.4 0 7.4 2.1 2.1 5.4 2.1 7.4 0 2.1-2.1 2.1-5.4 0-7.4-2-2.1-5.4-2.1-7.4 0zm49.6-4c3.2-3.2 3.2-8.3 0-11.5-3.2-3.2-8.3-3.2-11.5 0-3.2 3.2-3.2 8.3 0 11.5 3.2 3.2 8.4 3.2 11.5 0zm-28.1-1.3c2.4-2.4 2.4-6.4 0-8.8-2.4-2.4-6.4-2.4-8.8 0-2.4 2.4-2.4 6.4 0 8.8 2.4 2.4 6.4 2.4 8.8 0zm29.7-11.7c3.4 3.4 8.8 3.4 12.2 0 3.4-3.4 3.4-8.8 0-12.2-3.4-3.4-8.8-3.4-12.2 0-3.4 3.4-3.4 8.8 0 12.2zm-29.7-15.1c2.4-2.4 2.4-6.4 0-8.8-2.4-2.4-6.4-2.4-8.8 0-2.4 2.4-2.4 6.4 0 8.8 2.4 2.4 6.4 2.4 8.8 0zm0-26.8c2.4-2.4 2.4-6.4 0-8.8-2.4-2.4-6.4-2.4-8.8 0-2.4 2.4-2.4 6.4 0 8.8 2.4 2.4 6.4 2.4 8.8 0zm3.9 14.1c2.8 2.8 7.3 2.8 10.1 0 2.8-2.8 2.8-7.3 0-10.1-2.8-2.8-7.3-2.8-10.1 0-2.8 2.7-2.8 7.3 0 10.1zm0 53.6c2.8 2.8 7.3 2.8 10.1 0 2.8-2.8 2.8-7.3 0-10.1-2.8-2.8-7.3-2.8-10.1 0-2.8 2.7-2.8 7.3 0 10.1zm-25.4-35.6c-2.1 2.1-2.1 5.4 0 7.4 2.1 2.1 5.4 2.1 7.4 0 2.1-2.1 2.1-5.4 0-7.4-2-2.1-5.4-2.1-7.4 0zm12.7 66.3c-2.4 2.4-2.4 6.4 0 8.8 2.4 2.4 6.4 2.4 8.8 0 2.4-2.4 2.4-6.4 0-8.8-2.4-2.5-6.4-2.5-8.8 0zm-12.7-93.1c-2.1 2.1-2.1 5.4 0 7.4 2.1 2.1 5.4 2.1 7.4 0 2.1-2.1 2.1-5.4 0-7.4-2-2.1-5.4-2.1-7.4 0zm38.1 64.9c-3.2 3.2-3.2 8.3 0 11.5 3.2 3.2 8.3 3.2 11.5 0 3.2-3.2 3.2-8.3 0-11.5-3.1-3.2-8.3-3.2-11.5 0zm-12.7 14.1c-2.8 2.8-2.8 7.3 0 10.1 2.8 2.8 7.3 2.8 10.1 0 2.8-2.8 2.8-7.3 0-10.1-2.7-2.8-7.3-2.8-10.1 0zm38.8-41.5c-3.5 3.5-3.5 9.3 0 12.9 3.5 3.5 9.3 3.5 12.9 0 3.5-3.5 3.5-9.3 0-12.9-3.6-3.6-9.3-3.6-12.9 0zm-13 13.7c-3.4 3.4-3.4 8.8 0 12.2 3.4 3.4 8.8 3.4 12.2 0 3.4-3.4 3.4-8.8 0-12.2-3.4-3.4-8.9-3.4-12.2 0z"/><path fill-rule="evenodd" class="b" d="m435.9 95c4 4.5 6 11.7 6 21.7 0 5.6-0.5 10.4-1.7 14.4-1.2 3.9-2.9 7.2-5 9.7-2.2 2.5-4.7 4.4-7.7 5.6q-4.5 1.8-9.9 1.8c-7.8 0-13.7-2.2-17.7-6.7-4-4.5-6-11.7-6-21.7 0-5.6 0.5-10.4 1.7-14.4 1.2-4 2.9-7.3 5-9.8 2.2-2.5 4.7-4.4 7.7-5.6q4.5-1.8 9.9-1.8c7.8 0 13.7 2.2 17.7 6.8zm-5.6 24.1c0-4.1-0.2-7.5-0.7-10.3-0.5-2.8-1.2-5-2.2-6.8-1-1.8-2.3-3-3.9-3.8-1.5-0.7-3.4-1.1-5.7-1.1-4.7 0-7.9 1.7-9.7 5.2-1.8 3.5-2.7 8.4-2.7 14.8 0 4.1 0.2 7.5 0.7 10.3 0.5 2.8 1.2 5 2.2 6.8 1 1.8 2.3 3 3.9 3.8 1.5 0.7 3.4 1.1 5.6 1.1 4.7 0 8-1.7 9.8-5.1 1.9-3.5 2.8-8.4 2.7-14.9z"/><path class="b" d="m465.3 66.5h-8q-1.5 0-1.5 1.2v78q0 1.2 1.5 1.2h8q1.5 0 1.5-1.2v-78q0-1.2-1.5-1.2z"/><path class="b" d="m387.7 88.8c-0.4-0.2-0.8-0.2-1.1-0.2h-1.1c-1.7 0-3.8 0.4-6.3 1.1-2.6 0.8-5.6 2-9 3.7l-0.9-2.9c-0.2-0.5-0.3-0.8-0.5-1-0.2-0.2-0.5-0.3-1.1-0.3h-6q-1.5 0-1.5 1.2v55.2q0 1.2 1.5 1.2h8q1.5 0 1.5-1.2v-44.9c2.7-0.8 5.4-1.4 8.1-1.6 2.7-0.3 4.8-0.4 6.4-0.4q1.6 0 1.8-1.2l1.1-7.1c0.1-0.5 0.1-0.8 0-1.1-0.2-0.1-0.5-0.3-0.9-0.5z"/><path class="b" d="m551.1 92c-1.4-1.4-3.1-2.3-5.1-2.9-2-0.6-4.1-0.9-6.4-0.9-3.2 0-6.2 0.5-9.1 1.5-2.9 1-5.6 2.2-8.2 3.7l-0.9-2.8c-0.2-0.4-0.3-0.7-0.5-0.9-0.2-0.2-0.5-0.3-1.1-0.3h-6q-1.5 0-1.5 1.2v55.2q0 1.2 1.5 1.2h8q1.5 0 1.5-1.2v-44.5c1.7-1 3.6-1.9 5.9-2.6q3.4-1.2 6.6-1.2c2.8 0 4.9 0.8 6.5 2.3 1.5 1.5 2.3 4.5 2.3 9v37.1q0 1.2 1.5 1.2h8q1.5 0 1.5-1.2v-40.7q0-4.6-1.2-7.8c-0.7-2.3-1.9-4.1-3.3-5.4z"/><path class="b" d="m489.6 67.2c-2 0-3.6 0.7-4.9 2-1.3 1.4-2 3-2 5 0 2 0.7 3.6 2 4.9 1.3 1.3 2.9 2 4.9 2 2 0 3.6-0.7 5-2 1.4-1.3 2-2.9 2-4.9 0-2-0.7-3.6-2-5-1.4-1.3-3.1-2-5-2z"/><path class="b" d="m613.7 138.4c-1 0-1.8-0.1-2.5-0.4-0.7-0.3-1.3-0.7-1.9-1.2-0.6-0.5-1.2-1.2-1.8-2-0.6-0.8-1.3-1.8-2-2.8l-11.9-16.9 17.7-24.2c0.3-0.4 0.3-0.7 0.1-1.1-0.2-0.3-0.6-0.5-1-0.5h-9q-0.7 0-1.2 0.3c-0.3 0.2-0.5 0.5-0.8 0.8l-16.5 23.4v-46.1q0-1.2-1.5-1.2h-8q-1.5 0-1.5 1.2v78q0 1.2 1.5 1.2h8q1.5 0 1.5-1.2v-28.4l14.5 21.6c1 1.5 1.9 2.8 2.9 3.8 0.9 1.1 1.9 1.9 2.9 2.5 1 0.6 2.1 1 3.3 1.3 1.2 0.3 2.5 0.4 4 0.4h3.2q1.5 0 1.5-1.2v-6c-0.2-0.8-0.6-1.3-1.5-1.3z"/><path class="b" d="m348 89.3h-15.8v-13.4q0-1.3-1.5-1.2l-8 1.1c-1 0.1-1.5 0.5-1.5 1.4v12.2h-5.9q-1.5 0-1.5 1.2v6.2q0 1.2 1.5 1.2h5.9v34.2c0 6 1.1 10.2 3.4 12.5 2.3 2.3 5.8 3.5 10.7 3.5 1 0 2-0.1 3.2-0.2 1.2-0.1 2.3-0.3 3.5-0.5 1.2-0.2 2.3-0.4 3.3-0.7 1.1-0.3 2-0.5 2.7-0.8 0.8-0.3 1.1-0.8 0.9-1.6l-1.4-5.3c-0.2-0.8-0.6-1.1-1.2-1.1-0.5 0-1.5 0.2-3.3 0.6q-2.6 0.6-5.4 0.6-3 0-4.2-2.1c-0.9-1.4-1.3-3.9-1.3-7.3v-31.8h15.9q1.5 0 1.5-1.2v-6.2c0-0.9-0.5-1.3-1.5-1.3z"/><path class="b" d="m493.6 89.3h-8q-1.5 0-1.5 1.2v55.2q0 1.2 1.5 1.2h8q1.5 0 1.5-1.2v-55.2q0-1.2-1.5-1.2z"/><path fill-rule="evenodd" class="b" d="m304.7 103.8q1.2 5.1 1.2 11.4c0 1.9-0.1 3.3-0.2 4.1q-0.2 1.2-1.5 1.2h-32c0.1 3.5 0.5 6.4 1.3 8.7 0.8 2.3 1.9 4.2 3.2 5.6 1.3 1.4 2.9 2.5 4.7 3.1 1.8 0.7 3.8 1 6.1 1q3.3 0 7.2-0.9 3.9-0.9 7.2-2.1c0.4-0.1 0.8-0.2 1.2-0.1 0.4 0.1 0.6 0.4 0.8 0.9l1.8 6c0.2 0.8-0.1 1.3-0.9 1.7-3.2 1.3-6.4 2.2-9.7 2.8q-5 0.9-9.6 0.9c-7.9 0-14-2.4-18.3-7.1-4.3-4.7-6.5-12.2-6.5-22.3 0-5.4 0.7-10.1 1.9-13.9 1.3-3.9 3-7 5.1-9.5 2.1-2.5 4.7-4.3 7.6-5.5 2.9-1.1 6.1-1.7 9.6-1.7 3.7 0 6.8 0.7 9.5 1.9q4.1 2 6.6 5.4c1.7 2.3 3 5.1 3.7 8.4zm-9.6 8.5c-0.1-2.1-0.3-4-0.7-5.9-0.4-1.9-1-3.5-1.9-4.9-0.8-1.4-2-2.5-3.4-3.3-1.4-0.8-3.2-1.2-5.3-1.2-6.9 0-10.6 5.1-11.4 15.3z"/><path class="b" d="m241.2 66.5h-11.2c-0.8 0-1.4 0.4-1.7 1.2l-15.7 46.5-15.3-46.5c-0.3-0.8-0.9-1.2-1.7-1.2h-11.9c-1 0-1.5 0.4-1.6 1.2l-6.5 78c0 0.8 0.5 1.2 1.4 1.2h7.9q1.5 0 1.5-1.2l4.6-66.3 15.9 47.2c0.2 0.8 0.8 1.1 1.7 1.1h6.8c1 0 1.6-0.4 1.8-1.1l16.3-47.5 5 66.5q0 1.2 1.5 1.2h8.1c0.9 0 1.4-0.4 1.4-1.2l-6.4-78c-0.4-0.7-0.9-1.1-1.9-1.1z"/></svg>